<!DOCTYPE svg PUBLIC "-//W3C//DTD SVG 1.1//EN" "http://www.w3.org/Graphics/SVG/1.1/DTD/svg11.dtd">
<!-- Uploaded to: SVG Repo, www.svgrepo.com, Transformed by: SVG Repo Mixer Tools -->
<svg fill="#0082E1" height="800px" width="800px" version="1.1" id="Capa_1" xmlns="http://www.w3.org/2000/svg" xmlns:xlink="http://www.w3.org/1999/xlink" viewBox="0 0 54 54" xml:space="preserve">
<g id="SVGRepo_bgCarrier" stroke-width="0"/>
<g id="SVGRepo_tracerCarrier" stroke-linecap="round" stroke-linejoin="round"/>
<g id="SVGRepo_iconCarrier"> <g> <path d="M1,9h3v4c0,0.553,0.447,1,1,1h12c0.553,0,1-0.447,1-1V9h35c0.553,0,1-0.447,1-1s-0.447-1-1-1H18V3c0-0.553-0.447-1-1-1H5 C4.447,2,4,2.447,4,3v4H1C0.447,7,0,7.447,0,8S0.447,9,1,9z M6,4h10v8H6V4z"/> <path d="M53,26H34v-4c0-0.553-0.447-1-1-1H21c-0.553,0-1,0.447-1,1v4H1c-0.553,0-1,0.447-1,1s0.447,1,1,1h19v4c0,0.553,0.447,1,1,1 h12c0.553,0,1-0.447,1-1v-4h19c0.553,0,1-0.447,1-1S53.553,26,53,26z M32,31H22v-8h10V31z"/> <path d="M53,45h-3v-4c0-0.553-0.447-1-1-1H37c-0.553,0-1,0.447-1,1v4H1c-0.553,0-1,0.447-1,1s0.447,1,1,1h35v4c0,0.553,0.447,1,1,1 h12c0.553,0,1-0.447,1-1v-4h3c0.553,0,1-0.447,1-1S53.553,45,53,45z M48,50H38v-8h10V50z"/> </g> </g>
</svg>